<svg xmlns="http://www.w3.org/2000/svg" xmlns:xlink="http://www.w3.org/1999/xlink" version="1.1" x="0px" y="0px" style="enable-background:new 0 0 425.79 188.48;" xml:space="preserve" viewBox="82.95 63.9 259.9 60.67">
<style type="text/css">
	.st0{fill:#0090F2;}
	.st1{opacity:0.4;fill:#C0E0F1;}
	.st2{opacity:0.66;fill:#03045E;}
	.st3{fill:#FFFFFF;}
	.st4{fill:#90CAF9;}
	.st5{fill:#E3F2FD;}
	.st6{fill:#000342;}
	.st7{fill:none;stroke:#FFFFFF;stroke-width:20;stroke-linecap:round;stroke-miterlimit:10;}
	.st8{fill:none;stroke:#FFFFFF;stroke-width:15;stroke-linecap:round;stroke-miterlimit:10;}
	.st9{fill:none;stroke:#0090F2;stroke-width:9;stroke-linecap:round;stroke-miterlimit:10;}
	.st10{fill:none;stroke:#CFE9F9;stroke-width:15;stroke-linecap:round;stroke-miterlimit:10;}
	.st11{fill:none;stroke:#B9FAF8;stroke-width:15;stroke-linecap:round;stroke-miterlimit:10;}
	.st12{fill:none;stroke:#0090F2;stroke-width:15;stroke-linecap:round;stroke-miterlimit:10;}
	.st13{fill:none;stroke:#FFBE55;stroke-width:15;stroke-linecap:round;stroke-miterlimit:10;}
	.st14{fill:#B0DAF4;}
	.st15{fill:none;stroke:#90CAF9;stroke-width:15;stroke-linecap:round;stroke-miterlimit:10;}
	
		.st16{clip-path:url(#SVGID_00000181800616484078155240000003483400059378371482_);fill:none;stroke:#F7F7F7;stroke-width:15;stroke-linecap:round;stroke-miterlimit:10;}
	.st17{fill:none;stroke:#F7F7F7;stroke-width:15;stroke-linecap:round;stroke-miterlimit:10;}
	.st18{opacity:0.6;fill:none;stroke:#FFBE55;stroke-width:15;stroke-linecap:round;stroke-miterlimit:10;}
	.st19{fill:#06093A;}
	.st20{fill:#03045E;}
	.st21{fill:#0079DD;}
	.st22{opacity:0.04;fill:url(#SVGID_00000068658356268888011090000000862168275676515982_);}
	.st23{opacity:0.04;fill:url(#SVGID_00000045615848638054659850000007128574543919999366_);}
	.st24{opacity:0.04;fill:url(#SVGID_00000075847307586715274700000010677436443701469116_);}
	.st25{fill:#F0F7FC;}
	.st26{opacity:0.04;fill:url(#SVGID_00000109724198052730884770000015604298874695333271_);}
	.st27{opacity:0.04;fill:url(#SVGID_00000036956205743253103670000005390570137657257370_);}
	.st28{fill:#B9FAF8;}
	.st29{fill:#FFBE55;}
	.st30{opacity:0.04;fill:url(#SVGID_00000008144680414440918400000010613772179469479587_);}
	.st31{opacity:0.04;fill:url(#SVGID_00000085240151035838569580000017364642877734042781_);}
	.st32{opacity:0.04;fill:url(#SVGID_00000029735332243311139910000003673253728897455249_);}
	.st33{fill:none;stroke:#90CAF9;stroke-miterlimit:10;}
	.st34{clip-path:url(#SVGID_00000047029506911996699480000001626322392505771911_);}
	.st35{fill:none;stroke:#0090F2;stroke-miterlimit:10;}
	.st36{fill:none;stroke:#FFFFFF;stroke-miterlimit:10;}
	.st37{opacity:0.18;}
	.st38{fill:none;stroke:#000342;stroke-miterlimit:10;}
	.st39{opacity:0.04;fill:url(#SVGID_00000052796518144244350050000011845335498742777772_);}
	.st40{opacity:0.04;fill:url(#SVGID_00000153697917364472258010000006784788568268399800_);}
	.st41{opacity:0.04;fill:url(#SVGID_00000063595043205164403190000008713730241451824817_);}
	.st42{clip-path:url(#SVGID_00000051363805098879947210000005968294572814026395_);}
	.st43{clip-path:url(#SVGID_00000075859991735175201610000008206550953773670825_);}
	.st44{filter:url(#Adobe_OpacityMaskFilter);}
</style>
<g id="Background">
</g>
<g id="Layer_1">
	<g>
		<path class="st0" d="M281.81,92.37c-7.81,0-15.45,5.58-15.45,15.86c0,10.16,7.52,15.86,15.92,15.86c5.4,0,9.81-2.23,12.34-5.4    l-3.58-3.82c-2.23,1.94-4.88,2.76-7.87,2.76c-4.58,0-8.22-2.17-9.34-6.34h22.85C298.38,97.83,289.57,92.37,281.81,92.37z     M273.71,105.53c1-4.41,4.52-6.52,8.17-6.52c3.7,0,7.34,2.17,7.81,6.52H273.71z"/>
		<path class="st0" d="M313.94,105.7l-3.41-1.29c-2.41-0.82-3.17-1.94-3.17-3.23c0-1.47,1.23-2.64,3.29-2.64    c1.64,0,3.23,0.76,4.05,3.23l6.17-1.59c-1-4.7-5.05-7.81-10.57-7.81c-5.76,0-10.57,3.29-10.57,8.75c0,3.7,2.11,6.93,7.17,8.75    l3.76,1.41c2.41,0.88,3.35,1.94,3.35,3.41c0,2.17-1.94,3.17-3.94,3.17c-3,0-4.46-2.06-5.05-4.05l-6.29,1.7    c0.94,5.64,5.4,8.58,11.45,8.58c6.4,0,11.63-3.29,11.63-9.4C321.82,109.28,317.7,107.05,313.94,105.7z"/>
		<path class="st0" d="M339.97,116.86c-2.59,0-3.47-1.53-3.47-3.11V99.24h6.29v-6.29h-6.29v-7.81h-7.93v7.81h-4.35v6.29h4.35v15.8    c0,6.29,3.76,8.81,8.93,8.81c1.94,0,4.17-0.35,5.35-1.41v-6.05C341.73,116.75,340.67,116.86,339.97,116.86z"/>
		<g>
			<path class="st0" d="M99.31,123.58c-0.03,0-0.06,0-0.08,0c-5.5-0.03-10.76-3.27-13.72-8.47c-3.46-6.06-4.5-16.9,3.96-27.48     c1.55-1.94,3.37-3.77,5.4-5.44c1.41-1.16,3.49-0.96,4.65,0.45c1.16,1.41,0.96,3.49-0.45,4.65c-1.68,1.38-3.17,2.88-4.44,4.47     c-4.31,5.39-7.03,13.69-3.38,20.08c1.77,3.1,4.92,5.12,8.02,5.13c2.15,0.01,4.17-0.76,5.65-1.55c-1.08-1.19-1.87-2.44-2.4-3.78     c-1.91-4.89,0.18-10.85,4.76-13.57c1.69-1,3.65-1.19,5.53-0.54c2.9,1.02,4.79,3.7,5.54,5.69c1.33,3.55,0.72,7.65-1.6,10.7     c-0.35,0.46-0.73,0.92-1.13,1.37c0.83,0.47,1.67,0.88,2.53,1.17c2.52,0.84,5.44,0.44,7.83-1.07c3.52-2.22,5.46-6.91,4.95-11.95     c-0.41-4-2.18-8.15-5.01-11.68c-3.47-4.34-8.56-7.98-14.71-10.5c-1.69-0.69-2.49-2.62-1.8-4.31c0.69-1.69,2.62-2.49,4.31-1.8     c7.19,2.95,13.19,7.27,17.36,12.49c3.61,4.52,5.89,9.89,6.43,15.15c0.76,7.51-2.38,14.65-8,18.2c-4.05,2.55-9.07,3.21-13.45,1.75     c-2.1-0.7-3.99-1.79-5.67-2.92c-0.4,0.27-0.81,0.53-1.22,0.79C105.97,122.55,102.57,123.58,99.31,123.58z M110.62,103.77     c-1.8,1.11-2.69,3.59-1.95,5.47c0.28,0.72,0.79,1.44,1.54,2.16c0.46-0.48,0.89-0.97,1.27-1.48c0.93-1.22,1.2-2.98,0.67-4.38     C111.82,104.65,110.99,103.9,110.62,103.77z"/>
		</g>
		<path class="st0" d="M250.27,92.37c-4.58,0-7.64,2.06-9.34,4.76v-4.17h-7.87v20.69c-0.61-0.89-1.28-2.06-1.98-3.56    c-0.49-1.06-1.38-1.84-2.56-1.98c-1.2-0.14-2.05,0.43-2.85,1.23c-1.33,1.33-2.6,2.76-4.21,3.77c-1.58,0.99-3.36,1.66-5.2,1.95    c-1.27,0.2-2.53,0.07-3.45-0.92c-0.49-0.57-0.94-1.2-1.35-1.88c0.73-0.73,1.43-1.45,2.07-2.16c6.17-6.76,10.55-15.18,12.29-24.18    c0.83-4.32,0.71-9.15-0.84-13.3c-1.78-4.76-5.33-7.58-9.8-7.73l-0.06,0c-2.94-0.1-7.14,0.94-10.43,6.3    c-2.67,4.38-4.12,10.86-4.35,17.78c-0.19,5.84,0.49,12.01,2.04,17.56c0.16,0.71,0.34,1.42,0.54,2.13    c-1.98,2.34-8.31,8.51-13.15,8.41c-2.82-0.09-5.34-1.94-7.46-5.59c9.18-9.4,13.81-21.41,14.13-30.98    c0.11-3.35-0.32-6.36-1.24-8.86c-1.78-4.76-5.33-7.58-9.8-7.73l-0.06,0c-2.94-0.1-7.14,0.94-10.43,6.3    c-2.67,4.38-4.12,10.86-4.35,17.78c-0.23,7.05,0.81,14.58,3.11,20.92c-2.97,2.79-10.64,9.22-18.49,8.96    c-0.29-0.01-0.64-0.08-0.94-0.09c-2.69-0.27-4.55-1.15-5.62-2.48c10.6-0.59,15.69-7.01,15.87-12.52c0.14-4.17-2.51-7.78-7.67-7.95    c-0.35-0.01-0.7-0.02-1.06,0.02c-8.48,0.43-14.57,8.81-14.83,16.56c-0.21,6.28,3.36,12.1,12.56,13.05    c0.47,0.07,0.94,0.09,1.35,0.1c7.79,0.26,16-4.1,21.88-9.25c3.09,5,7.35,8.34,12.76,8.51c0,0,0.12,0,0.12,0    c5.03,0.11,10.27-2.36,14.88-5.64c0.67-0.48,1.33-0.98,1.97-1.49c-0.21,0.16,2.52,2.98,2.79,3.22c1.06,0.91,2.27,1.65,3.59,2.1    c2.05,0.7,4.32,0.65,6.41,0.16c2.07-0.49,4.14-1.28,5.9-2.49c0.87-0.6,1.7-1.27,2.45-2.01c0.43,0.6,1.52,1.82,1.66,1.98    c0.7,0.75,1.48,1.43,2.35,1.98c2.2,1.39,5.3,1.89,7.29-0.13c0.99-1,1.53-2.37,1.78-3.75c0.25-1.38,0.22-2.8,0.21-4.2    c-0.02-1.53-0.02-3.06,0-4.59c0.01-1.32-0.04-2.66,0.19-3.96c0.32-1.84,1.23-3.61,2.84-4.63c1.05-0.66,2.29-0.95,3.53-0.95    c4.11,0,6.52,2.94,6.52,7.4v16.68h7.87v-17.98C261.84,96.24,256.55,92.37,250.27,92.37z M156.13,101.63l0.29,0.01    c1,0.03,1.45,0.52,1.43,1.28c-0.06,1.94-3.47,5.41-9.65,5.68C149.49,105.05,152.6,101.8,156.13,101.63z M179.42,104.74    c-1.53-5.16-2.27-11.24-2.09-16.82c0.19-5.64,1.3-10.83,3.35-14.17c1.93-3.17,3.87-3.16,4.51-3.14l0.06,0    c0.7,0.02,2.46,0.2,3.65,3.35c0.59,1.67,0.93,3.91,0.85,6.43C189.51,87.33,186.38,96.69,179.42,104.74z M209.18,105.72    c-1.53-5.16-2.27-11.24-2.09-16.82c0.19-5.64,1.3-10.83,3.35-14.17c1.93-3.17,3.87-3.16,4.51-3.14l0.06,0    c0.7,0.02,2.46,0.2,3.65,3.35c0.59,1.67,0.93,3.91,0.85,6.43C219.28,88.31,216.15,97.67,209.18,105.72z M223.53,116.75    C223.53,116.75,223.53,116.75,223.53,116.75c0-0.01,0-0.02,0-0.02C223.53,116.74,223.53,116.75,223.53,116.75z"/>
	</g>
</g>
<g id="Layer_3">
</g>
</svg>