<svg width="319" height="503" viewBox="0 0 319 503" fill="none" xmlns="http://www.w3.org/2000/svg">
<g clip-path="url(#clip0_25_544)">
<path d="M73.0326 185.608C63.4787 220.638 70.4483 260.519 96.3256 286.661C121.525 312.114 159.213 324.515 194.631 322.574C205.478 321.972 216.279 319.994 226.534 316.374C239.588 311.757 253.988 303.527 259.358 290.03C264.565 276.919 262.21 259.16 249.533 251.204C237.843 243.873 222.153 247.245 211.433 254.762C201.837 261.493 196.531 271.794 192.728 282.575C189.108 292.83 187.135 303.626 186.55 314.475C184.619 349.886 197.047 387.586 222.502 412.764C248.655 438.622 288.542 445.585 323.562 436.011C392.492 417.159 431.108 345.856 438.523 279C442.26 245.249 439.096 210.939 431.078 177.831" stroke="#FFBE55" stroke-width="20" stroke-miterlimit="10" stroke-linecap="round"/>
</g>
<defs>
<clipPath id="clip0_25_544">
<rect width="393.189" height="329.354" fill="white" transform="translate(308.499 502.188) rotate(-141.684)"/>
</clipPath>
</defs>
</svg>
