<svg width="423" height="279" viewBox="0 0 423 279" fill="none" xmlns="http://www.w3.org/2000/svg">
<path d="M-49.5461 91.2692C-11.3878 121.077 41.34 131.269 88.5561 122.635C103.01 119.981 117.175 115.5 130.318 108.904C147.065 100.5 164.988 87.0192 169.883 68.0192C174.644 49.5769 168.438 26.1922 150.072 17.6922C133.132 9.86532 112.646 17.0384 99.5218 28.9422C87.7852 39.5961 82.4276 54.2884 79.1514 69.3845C76.0487 83.7307 75.2392 98.5384 76.2992 113.173C79.7489 160.942 102.856 209.327 141.342 238.711C180.868 268.904 235.6 271.442 280.966 252.654C370.291 215.673 409.972 113.577 408.508 22.7692" stroke="white" stroke-width="20" stroke-miterlimit="10" stroke-linecap="round"/>
</svg>
