<svg width="472" height="864" viewBox="0 0 472 864" fill="none" xmlns="http://www.w3.org/2000/svg">
<g filter="url(#filter0_ddddd_208_139)">
<rect x="61" y="9.15527e-05" width="350.463" height="728" rx="54.9008" fill="white"/>
<rect x="61.376" y="0.376125" width="349.711" height="727.248" rx="54.5248" stroke="black" stroke-opacity="0.15" stroke-width="0.752066"/>
</g>
<g clip-path="url(#clip0_208_139)">
<rect x="75" y="14" width="323.388" height="700.926" rx="41.3636" fill="url(#paint0_linear_208_139)"/>
<path d="M256.363 242C256.363 242 256.469 242 256.515 242C266.462 242.06 275.986 247.911 281.361 257.299C287.629 268.26 289.521 287.853 274.199 306.978C271.383 310.485 268.097 313.796 264.418 316.819C261.859 318.921 258.104 318.543 256 316.003C253.895 313.448 254.274 309.699 256.817 307.597C259.846 305.103 262.556 302.382 264.857 299.524C272.67 289.788 277.591 274.776 270.974 263.226C267.764 257.617 262.071 253.974 256.454 253.943C252.548 253.928 248.899 255.319 246.219 256.74C248.172 258.887 249.61 261.155 250.564 263.573C254.032 272.402 250.246 283.182 241.949 288.11C238.891 289.924 235.333 290.272 231.941 289.078C226.702 287.233 223.265 282.396 221.918 278.797C219.511 272.387 220.616 264.979 224.81 259.461C225.446 258.615 226.127 257.798 226.854 256.982C225.355 256.12 223.826 255.395 222.266 254.865C217.709 253.354 212.41 254.064 208.094 256.801C201.72 260.822 198.208 269.303 199.131 278.404C199.858 285.631 203.083 293.144 208.2 299.524C214.484 307.371 223.705 313.947 234.848 318.513C237.907 319.767 239.36 323.26 238.103 326.298C236.847 329.352 233.349 330.804 230.291 329.549C217.285 324.212 206.414 316.411 198.859 306.978C192.303 298.814 188.169 289.093 187.2 279.599C185.838 266.023 191.515 253.112 201.69 246.702C209.018 242.076 218.118 240.896 226.036 243.542C229.837 244.812 233.258 246.762 236.302 248.818C237.028 248.334 237.755 247.851 238.512 247.397C244.296 243.86 250.458 242 256.363 242ZM235.878 277.815C239.148 275.819 240.738 271.329 239.421 267.928C238.906 266.627 237.982 265.327 236.62 264.012C235.787 264.889 235.015 265.781 234.318 266.673C232.638 268.88 232.138 272.07 233.092 274.595C233.697 276.212 235.196 277.573 235.863 277.8L235.878 277.815Z" fill="white"/>
<path d="M239.711 421.719C246.886 440.416 262.993 455.881 283.029 459.069C302.538 462.171 323.346 455.395 338.466 442.981C343.095 439.175 347.253 434.773 350.634 429.818C354.934 423.507 358.655 415.15 356.642 407.395C354.682 399.866 347.843 392.735 339.609 393.331C332.018 393.883 326.14 400.499 323.823 407.339C321.75 413.463 322.75 419.775 324.575 425.81C326.309 431.552 328.952 436.997 332.231 442.014C342.921 458.394 360.744 471.109 380.278 474.006C400.344 476.977 420.356 467.065 432.809 451.386C457.32 420.52 451.241 376.211 432.734 344.056C423.389 327.825 410.791 313.597 396.427 301.486" stroke="#B9FAF8" stroke-width="15" stroke-miterlimit="10" stroke-linecap="round"/>
<g opacity="0.1">
<path d="M426.719 -119.011C408.759 -127.873 386.434 -128.299 369.555 -117.043C353.122 -106.081 342.438 -86.9821 339.759 -67.6026C338.943 -61.6668 338.876 -55.611 339.756 -49.6774C340.881 -42.124 343.82 -33.461 350.562 -29.1321C357.111 -24.9324 366.974 -24.3369 372.617 -30.3625C377.817 -35.9195 377.644 -44.7688 374.703 -51.3643C372.069 -57.2684 367.051 -61.2258 361.615 -64.4201C356.444 -67.46 350.807 -69.6653 344.995 -71.1248C326.027 -75.8997 304.307 -73.1415 287.995 -62.012C271.241 -50.576 263.271 -29.7147 264.766 -9.7468C267.713 29.557 302.25 57.9733 337.664 69.0285C355.543 74.6067 374.452 76.5069 393.221 75.6526" stroke="#E3F3FF" stroke-width="15" stroke-miterlimit="10" stroke-linecap="round"/>
</g>
<g opacity="0.1" clip-path="url(#clip1_208_139)">
<path d="M64.4723 721.948C83.5416 728.066 105.686 725.198 120.721 711.576C135.359 698.311 143.111 677.847 142.904 658.284C142.837 652.293 142.01 646.293 140.265 640.554C138.039 633.249 133.856 625.114 126.55 621.826C119.452 618.637 109.61 619.502 104.917 626.294C100.593 632.556 102.068 641.284 105.949 647.374C109.424 652.825 114.971 656 120.818 658.358C126.38 660.602 132.281 661.953 138.245 662.539C157.709 664.466 178.785 658.537 193.279 645.125C208.164 631.344 212.972 609.536 208.55 590.006C199.842 551.566 161.494 528.551 124.837 522.836C106.331 519.955 87.349 520.862 68.911 524.474" stroke="#E3F3FF" stroke-width="15" stroke-miterlimit="10" stroke-linecap="round"/>
</g>
<path d="M63.1725 59.3528C73.8151 77.7609 93.6072 90.5522 114.245 94.7604C120.564 96.0443 127.066 96.5356 133.499 95.9966C141.695 95.3102 151.203 92.7451 156.313 85.7953C161.277 79.051 162.588 68.4949 156.506 62.0201C150.895 56.0534 141.378 55.6255 134.082 58.333C127.556 60.7577 122.965 65.8744 119.154 71.4966C115.537 76.8413 112.778 82.7497 110.808 88.8936C104.374 108.946 105.841 132.469 116.686 150.758C127.823 169.547 149.687 179.544 171.237 179.307C213.668 178.846 246.574 143.691 260.878 106.406" stroke="#FFBE55" stroke-width="15" stroke-miterlimit="10" stroke-linecap="round"/>
</g>
<defs>
<filter id="filter0_ddddd_208_139" x="0.834709" y="9.15527e-05" width="470.793" height="863.372" filterUnits="userSpaceOnUse" color-interpolation-filters="sRGB">
<feFlood flood-opacity="0" result="BackgroundImageFix"/>
<feColorMatrix in="SourceAlpha" type="matrix" values="0 0 0 0 0 0 0 0 0 0 0 0 0 0 0 0 0 0 127 0" result="hardAlpha"/>
<feOffset dy="2.58327"/>
<feGaussianBlur stdDeviation="1.03331"/>
<feColorMatrix type="matrix" values="0 0 0 0 0 0 0 0 0 0 0 0 0 0 0 0 0 0 0.01 0"/>
<feBlend mode="normal" in2="BackgroundImageFix" result="effect1_dropShadow_208_139"/>
<feColorMatrix in="SourceAlpha" type="matrix" values="0 0 0 0 0 0 0 0 0 0 0 0 0 0 0 0 0 0 127 0" result="hardAlpha"/>
<feOffset dy="6.53327"/>
<feGaussianBlur stdDeviation="2.61331"/>
<feColorMatrix type="matrix" values="0 0 0 0 0 0 0 0 0 0 0 0 0 0 0 0 0 0 0.0133113 0"/>
<feBlend mode="normal" in2="effect1_dropShadow_208_139" result="effect2_dropShadow_208_139"/>
<feColorMatrix in="SourceAlpha" type="matrix" values="0 0 0 0 0 0 0 0 0 0 0 0 0 0 0 0 0 0 127 0" result="hardAlpha"/>
<feOffset dy="13.3273"/>
<feGaussianBlur stdDeviation="5.33091"/>
<feColorMatrix type="matrix" values="0 0 0 0 0 0 0 0 0 0 0 0 0 0 0 0 0 0 0.0166887 0"/>
<feBlend mode="normal" in2="effect2_dropShadow_208_139" result="effect3_dropShadow_208_139"/>
<feColorMatrix in="SourceAlpha" type="matrix" values="0 0 0 0 0 0 0 0 0 0 0 0 0 0 0 0 0 0 127 0" result="hardAlpha"/>
<feOffset dy="27.4517"/>
<feGaussianBlur stdDeviation="10.9807"/>
<feColorMatrix type="matrix" values="0 0 0 0 0 0 0 0 0 0 0 0 0 0 0 0 0 0 0.0206994 0"/>
<feBlend mode="normal" in2="effect3_dropShadow_208_139" result="effect4_dropShadow_208_139"/>
<feColorMatrix in="SourceAlpha" type="matrix" values="0 0 0 0 0 0 0 0 0 0 0 0 0 0 0 0 0 0 127 0" result="hardAlpha"/>
<feOffset dy="75.2066"/>
<feGaussianBlur stdDeviation="30.0826"/>
<feColorMatrix type="matrix" values="0 0 0 0 0 0 0 0 0 0 0 0 0 0 0 0 0 0 0.03 0"/>
<feBlend mode="normal" in2="effect4_dropShadow_208_139" result="effect5_dropShadow_208_139"/>
<feBlend mode="normal" in="SourceGraphic" in2="effect5_dropShadow_208_139" result="shape"/>
</filter>
<linearGradient id="paint0_linear_208_139" x1="236.694" y1="-8" x2="236.694" y2="800" gradientUnits="userSpaceOnUse">
<stop stop-color="#0079DD"/>
<stop offset="0.628713" stop-color="#03579D"/>
</linearGradient>
<clipPath id="clip0_208_139">
<rect width="323.388" height="700.926" fill="white" transform="translate(75 14)"/>
</clipPath>
<clipPath id="clip1_208_139">
<rect width="299.761" height="378.309" fill="white" transform="translate(321.07 729.249) rotate(153.058)"/>
</clipPath>
</defs>
</svg>
